<svg width="160" height="160" viewBox="0 0 160 160" fill="none" xmlns="http://www.w3.org/2000/svg">
<rect width="160" height="160" rx="20" fill="#D7EEFE"/>
<circle opacity="0.6" cx="79.3089" cy="55.2276" r="38.7083" fill="#FC521F"/>
<circle opacity="0.6" cx="55.1161" cy="102.231" r="38.7083" fill="#66BF3C"/>
<path fill-rule="evenodd" clip-rule="evenodd" d="M42.0566 65.7807C46.1366 64.3188 50.5334 63.5223 55.1163 63.5223C72.8359 63.5223 87.7746 75.4287 92.3686 91.6776C88.2886 93.1396 83.8918 93.936 79.309 93.936C61.5894 93.936 46.6506 82.0296 42.0566 65.7807Z" fill="#FF5F95"/>
<circle opacity="0.6" cx="104.884" cy="102.231" r="38.7083" fill="#1EA7FD"/>
<path fill-rule="evenodd" clip-rule="evenodd" d="M79.9999 131.882C88.452 124.781 93.8244 114.133 93.8244 102.231C93.8244 90.328 88.452 79.6801 79.9999 72.5795C71.5479 79.6801 66.1755 90.328 66.1755 102.231C66.1755 114.133 71.5479 124.781 79.9999 131.882Z" fill="#87E6E5"/>
<path fill-rule="evenodd" clip-rule="evenodd" d="M116.68 65.3524C112.229 81.82 97.1837 93.936 79.3088 93.936C75.1955 93.936 71.2321 93.2945 67.5132 92.1059C71.9639 75.6384 87.009 63.5223 104.884 63.5223C108.997 63.5223 112.961 64.1639 116.68 65.3524Z" fill="#FBD178"/>
<path d="M67.3721 92.0604C69.4686 84.3412 73.8937 77.5807 79.8465 72.5797C85.7135 77.5086 90.0966 84.1468 92.2289 91.7275C88.1884 93.1577 83.8397 93.936 79.3093 93.936C75.1438 93.936 71.132 93.278 67.3721 92.0604Z" fill="white"/>
</svg>
